<svg xmlns="http://www.w3.org/2000/svg" width="2560.689" height="250.144" viewBox="0 0 2560.689 250.144">
  <g id="Backgound_Lines" data-name="Backgound Lines" transform="translate(2029.365 164.647) rotate(180)">
    <g id="Line-6" transform="translate(-493.324 -85.497)">
      <rect id="Rectangle_2041" data-name="Rectangle 2041" width="194.852" height="10" transform="translate(-36 0)" fill="#30ba78"/>
      <rect id="Rectangle_2042" data-name="Rectangle 2042" width="409.763" height="10" transform="translate(154.078 0)" fill="#90ebcd"/>
      <rect id="Rectangle_2043" data-name="Rectangle 2043" width="420.256" height="10" transform="translate(852.099 0)" fill="#30ba78"/>
      <rect id="Rectangle_2044" data-name="Rectangle 2044" width="286.86" height="10" transform="translate(583.865 0)" fill="#fe7c3f"/>
      <rect id="Rectangle_2333" data-name="Rectangle 2333" width="360.08" height="10" transform="translate(1251.711 0)" fill="#30ba78"/>
      <rect id="Rectangle_2334" data-name="Rectangle 2334" width="238.274" height="10" transform="translate(1597.679 0)" fill="#2453ff"/>
      <rect id="Rectangle_2335" data-name="Rectangle 2335" width="446.56" height="10" transform="translate(2075.608 0)" fill="#30ba78"/>
      <rect id="Rectangle_2336" data-name="Rectangle 2336" width="239.73" height="10" transform="translate(1784.443 0)" fill="#2453ff"/>
    </g>
    <g id="Line-5" transform="translate(-530.636 -45.475)">
      <rect id="Rectangle_2049" data-name="Rectangle 2049" width="123.747" height="10" transform="translate(312.567 0)" fill="#fe7c3f"/>
      <path id="Path_737" data-name="Path 737" d="M0,0H343.443V10H0Z" transform="translate(1052.685 0)" fill="#fe7c3f"/>
      <rect id="Rectangle_2051" data-name="Rectangle 2051" width="360.08" height="10" transform="translate(469.95 0)" fill="#2453ff"/>
      <rect id="Rectangle_2071" data-name="Rectangle 2071" width="313.057" height="10" transform="translate(0 0)" fill="#efefef"/>
      <rect id="Rectangle_2341" data-name="Rectangle 2341" width="123.747" height="10" transform="translate(1799.279 0)" fill="#fe7c3f"/>
      <rect id="Rectangle_2343" data-name="Rectangle 2343" width="360.08" height="10" transform="translate(2199.92 0)" fill="#2453ff"/>
      <rect id="Rectangle_2362" data-name="Rectangle 2362" width="360.405" height="10" transform="translate(1424.304 0)" fill="#efefef"/>
      <rect id="Rectangle_2363" data-name="Rectangle 2363" width="239.73" height="10" transform="translate(1960.536 0)" fill="#90ebcd"/>
      <path id="Path_738" data-name="Path 738" d="M0,0H150V10H0Z" transform="translate(885.68)" fill="#90ebcd"/>
    </g>
    <g id="Line-4" transform="translate(-531.031 -5.454)">
      <path id="Path_653" data-name="Path 653" d="M70.492,0H636.459V10H70Z" transform="translate(630.378)" fill="#90ebcd"/>
      <rect id="Rectangle_2059" data-name="Rectangle 2059" width="93.174" height="10" transform="translate(1265.908)" fill="#192072"/>
      <rect id="Rectangle_2060" data-name="Rectangle 2060" width="510.211" height="10" transform="translate(174.912)" fill="#30ba78"/>
      <rect id="Rectangle_2069" data-name="Rectangle 2069" width="144.559" height="10" fill="#90ebcd"/>
      <path id="Path_652" data-name="Path 652" d="M0,0H504.789V10H0Z" transform="translate(2054.906)" fill="#90ebcd"/>
      <rect id="Rectangle_2352" data-name="Rectangle 2352" width="527.384" height="10" transform="translate(1464.411)" fill="#30ba78"/>
      <rect id="Rectangle_2360" data-name="Rectangle 2360" width="107.733" height="10" transform="translate(1358.618)" fill="#fe7c3f"/>
    </g>
    <g id="Line_3" data-name="Line 3" transform="translate(-463.074 34.568)">
      <rect id="Rectangle_2066" data-name="Rectangle 2066" width="507.121" height="10" transform="translate(737.627 0)" fill="#fe7c3f"/>
      <rect id="Rectangle_2067" data-name="Rectangle 2067" width="278.73" height="10" transform="translate(475.577 0)" fill="#90ebcd"/>
      <rect id="Rectangle_2068" data-name="Rectangle 2068" width="178.23" height="10" transform="translate(-65 0)" fill="#2453ff"/>
      <rect id="Rectangle_2070" data-name="Rectangle 2070" width="294.569" height="10" transform="translate(113.201 0)" fill="#efefef"/>
      <rect id="Rectangle_2357" data-name="Rectangle 2357" width="482.132" height="10" transform="translate(2009.786 0)" fill="#fe7c3f"/>
      <rect id="Rectangle_2358" data-name="Rectangle 2358" width="215.73" height="10" transform="translate(1794.051 0)" fill="#30ba78"/>
      <rect id="Rectangle_2359" data-name="Rectangle 2359" width="239.73" height="10" transform="translate(1225.224 0)" fill="#2453ff"/>
      <rect id="Rectangle_2361" data-name="Rectangle 2361" width="334.047" height="10" transform="translate(1449.564 0)" fill="#efefef"/>
    </g>
    <g id="Line-2" transform="translate(-493.324 74.59)">
      <rect id="Rectangle_2045" data-name="Rectangle 2045" width="324.428" height="10" transform="translate(-38)" fill="#30ba78"/>
      <rect id="Rectangle_2046" data-name="Rectangle 2046" width="346.263" height="10" transform="translate(974.68)" fill="#30ba78"/>
      <rect id="Rectangle_2047" data-name="Rectangle 2047" width="107.733" height="10" transform="translate(866.717)" fill="#90ebcd"/>
      <rect id="Rectangle_2048" data-name="Rectangle 2048" width="561.773" height="10" transform="translate(305.429)" fill="#fe7c3f"/>
      <rect id="Rectangle_2337" data-name="Rectangle 2337" width="375.863" height="10" transform="translate(1306.01)" fill="#30ba78"/>
      <rect id="Rectangle_2338" data-name="Rectangle 2338" width="118.73" height="10" transform="translate(2403.005)" fill="#30ba78"/>
      <rect id="Rectangle_2339" data-name="Rectangle 2339" width="214.265" height="10" transform="translate(2189.824)" fill="#90ebcd"/>
      <rect id="Rectangle_2340" data-name="Rectangle 2340" width="507.121" height="10" transform="translate(1616.113)" fill="#2453ff"/>
    </g>
    <g id="Line-1" transform="translate(-495.955 114.611)">
      <rect id="Rectangle_2052" data-name="Rectangle 2052" width="380.169" height="10" transform="translate(-33.751)" fill="#2453ff"/>
      <rect id="Rectangle_2053" data-name="Rectangle 2053" width="94.145" height="10" transform="translate(1108.427)" fill="#fe7c3f"/>
      <rect id="Rectangle_2055" data-name="Rectangle 2055" width="245.73" height="10" transform="translate(370.768)" fill="#efefef"/>
      <rect id="Rectangle_2056" data-name="Rectangle 2056" width="494.121" height="10" transform="translate(615.762)" fill="#30ba78"/>
      <rect id="Rectangle_2344" data-name="Rectangle 2344" width="128.115" height="10" transform="translate(1435.389)" fill="#2453ff"/>
      <rect id="Rectangle_2345" data-name="Rectangle 2345" width="94.145" height="10" transform="translate(2430.219)" fill="#fe7c3f"/>
      <rect id="Rectangle_2346" data-name="Rectangle 2346" width="239.73" height="10" transform="translate(1202.108)" fill="#fe7c3f"/>
      <rect id="Rectangle_2348" data-name="Rectangle 2348" width="868.806" height="10" transform="translate(1536.565)" fill="#30ba78"/>
    </g>
    <g id="Lone-0" transform="translate(-430.194 154.647)">
      <rect id="Rectangle_2061" data-name="Rectangle 2061" width="119.865" height="10" transform="translate(898.216 0)" fill="#90ebcd"/>
      <rect id="Rectangle_2062" data-name="Rectangle 2062" width="363.22" height="10" transform="translate(534.027 0)" fill="#192072"/>
      <rect id="Rectangle_2063" data-name="Rectangle 2063" width="169.782" height="10" transform="translate(-100 0)" fill="#fe7c3f"/>
      <rect id="Rectangle_2064" data-name="Rectangle 2064" width="239.73" height="10" transform="translate(1018.083 0)" fill="#fe7c3f"/>
      <rect id="Rectangle_2065" data-name="Rectangle 2065" width="507.121" height="10" transform="translate(69.501 0)" fill="#30ba78"/>
      <rect id="Rectangle_2353" data-name="Rectangle 2353" width="239.55" height="10" transform="translate(2220.008 0)" fill="#90ebcd"/>
      <rect id="Rectangle_2354" data-name="Rectangle 2354" width="365.85" height="10" transform="translate(1854.504 0)" fill="#fe7c3f"/>
      <rect id="Rectangle_2355" data-name="Rectangle 2355" width="96.086" height="10" transform="translate(1258.662 0)" fill="#192072"/>
      <rect id="Rectangle_2356" data-name="Rectangle 2356" width="507.121" height="10" transform="translate(1351.837 0)" fill="#30ba78"/>
    </g>
  </g>
</svg>
