<svg xmlns="http://www.w3.org/2000/svg" width="149.717" height="27.106" viewBox="0 0 149.717 27.106">
  <g id="Logo_suse" data-name="Logo suse" transform="translate(-28.346 -27.117)">
    <path id="Path_644" data-name="Path 644" d="M120.832,49.78c-3.583,0-6.311-1.017-8.108-3.025a1.483,1.483,0,0,1,.075-2.039l.008-.009a1.506,1.506,0,0,1,1.07-.441,1.452,1.452,0,0,1,1.1.5,6.274,6.274,0,0,0,1.7,1.4,8.429,8.429,0,0,0,4.115.92,7.1,7.1,0,0,0,3.669-.811,2.632,2.632,0,0,0,1.377-2.366,2.271,2.271,0,0,0-1.249-2,13.46,13.46,0,0,0-4.156-1.276,20.163,20.163,0,0,1-4.635-1.341,5.762,5.762,0,0,1-2.465-1.944,5,5,0,0,1-.764-2.814,5.625,5.625,0,0,1,.972-3.2,6.69,6.69,0,0,1,2.82-2.3,10.3,10.3,0,0,1,4.332-.855,10.785,10.785,0,0,1,4.939,1.045,8.465,8.465,0,0,1,2.453,1.908,1.5,1.5,0,1,1-2.307,1.915,5.434,5.434,0,0,0-1.365-1.282,6.769,6.769,0,0,0-3.688-.893,5.979,5.979,0,0,0-3.534.914,2.852,2.852,0,0,0-1.286,2.393,2.472,2.472,0,0,0,1.262,2.173,12.866,12.866,0,0,0,4.306,1.326A18.932,18.932,0,0,1,126,38.973a5.647,5.647,0,0,1,2.4,1.911,5.066,5.066,0,0,1,.748,2.831,5.2,5.2,0,0,1-1.033,3.195,6.552,6.552,0,0,1-2.913,2.124A11.907,11.907,0,0,1,120.832,49.78Zm47.558-.005c-3.582,0-6.311-1.018-8.108-3.025a1.484,1.484,0,0,1,.075-2.039l.006-.006,0-.006a1.5,1.5,0,0,1,1.067-.438,1.452,1.452,0,0,1,1.1.5,6.272,6.272,0,0,0,1.706,1.4,8.429,8.429,0,0,0,4.115.92,7.09,7.09,0,0,0,3.668-.811A2.632,2.632,0,0,0,173.4,43.9a2.273,2.273,0,0,0-1.249-2A13.477,13.477,0,0,0,168,40.631a20.167,20.167,0,0,1-4.634-1.341,5.767,5.767,0,0,1-2.466-1.943,5,5,0,0,1-.764-2.815,5.617,5.617,0,0,1,.973-3.2,6.671,6.671,0,0,1,2.82-2.3,10.292,10.292,0,0,1,4.332-.856,10.784,10.784,0,0,1,4.938,1.046,8.485,8.485,0,0,1,2.454,1.908,1.5,1.5,0,1,1-2.307,1.914,5.45,5.45,0,0,0-1.365-1.28,6.762,6.762,0,0,0-3.688-.894,5.979,5.979,0,0,0-3.534.914,2.853,2.853,0,0,0-1.286,2.393,2.471,2.471,0,0,0,1.261,2.172,12.869,12.869,0,0,0,4.306,1.325,18.939,18.939,0,0,1,4.519,1.292,5.64,5.64,0,0,1,2.4,1.911,5.073,5.073,0,0,1,.748,2.831,5.206,5.206,0,0,1-1.032,3.195,6.564,6.564,0,0,1-2.914,2.124A11.9,11.9,0,0,1,168.39,49.775Zm-23.858,0c-2.782,0-4.925-.706-6.369-2.1s-2.175-3.483-2.175-6.219V29.766a1.588,1.588,0,1,1,3.176,0V41.037a6.755,6.755,0,0,0,1.31,4.561,6.292,6.292,0,0,0,8.115,0,6.756,6.756,0,0,0,1.31-4.561V29.766a1.589,1.589,0,1,1,3.177,0v11.69c0,2.735-.733,4.828-2.177,6.219S147.313,49.775,144.532,49.775Zm43.254-.277a4.245,4.245,0,0,1-4.24-4.239V32.691a4.245,4.245,0,0,1,4.24-4.24h9.645a1.37,1.37,0,1,1,0,2.74h-9.645a1.5,1.5,0,0,0-1.5,1.5v4.947h9.461a1.3,1.3,0,0,1,0,2.6h-9.461v5.024a1.5,1.5,0,0,0,1.5,1.5h9.645a1.37,1.37,0,1,1,0,2.739Z" transform="translate(-20.739 -0.262)" fill="#fff"/>
    <path id="Path_645" data-name="Path 645" d="M79.774,35.521a2.391,2.391,0,1,1-2.391-2.39A2.391,2.391,0,0,1,79.774,35.521ZM62.7,45.529c-1.523-.563-2.111-.45-4.059-.424-1.349.018-1.4-.028-2.938-.028-.476,0-.651,2.28,1.07,2.753a4.4,4.4,0,0,1,2.134.918c.251.256.392.642-.188.642H54.444a2.907,2.907,0,0,1-2.025-.466,6.868,6.868,0,0,1-1.7-2.729,28.732,28.732,0,0,0-1.5-3.03A12.182,12.182,0,0,0,44.6,38.4a9.506,9.506,0,0,0-10.1.574c-3.54,2.719-2.781,7.81.315,10.3a6.378,6.378,0,0,0,4.383,1.3c3.062-.178,5.319-2.435,4.76-5.212a3.431,3.431,0,0,0-1.547-2.289,3.858,3.858,0,0,0-1.942-.462,2.85,2.85,0,0,0-2.012.651,1.877,1.877,0,0,0-.223,2.349c.272.389.715.716.639,1.222a.842.842,0,0,1-.671.673,1.638,1.638,0,0,1-1.487-.6,3.774,3.774,0,0,1-.759-3.977,4.754,4.754,0,0,1,4.577-2.617,6.635,6.635,0,0,1,5.67,3.87,7.22,7.22,0,0,1-.67,6.893c-3.028,4.423-10.5,3.9-13.974.17a10.823,10.823,0,0,1-3.2-8.84,12.217,12.217,0,0,1,4.04-8,27.456,27.456,0,0,1,13.1-6.679,29.556,29.556,0,0,1,8.883-.448,39.2,39.2,0,0,1,7.711,1.515,30.4,30.4,0,0,1,3.654,1.393,11.053,11.053,0,0,1,3.227,1.83c0-1.5-.059-3.148-.059-4.3a.6.6,0,0,1,.855-.548c1.7.789,5.717,2.688,8.4,3.913,3.593,1.642,3.847,5.516,3.973,8.95a.457.457,0,0,1-.028.224c-.113.236-.718.172-.941.175-.431,0-1.078,0-1.508.02-.858.038-1.693.023-2.552-.02a7.269,7.269,0,0,1-4.147-1.644c-.1-.086-.434-.18-.59-.018a.406.406,0,0,0-.018.519,7.132,7.132,0,0,0,4.986,2.03,20.914,20.914,0,0,0,3.357-.065c.931-.095,1.171-.159.253.523a9.681,9.681,0,0,1-2.692,1.35,14.412,14.412,0,0,1-4.236.733,16.814,16.814,0,0,1-2.6-.134c-.446-.056-.889-.137-1.338-.182a3.547,3.547,0,0,0-1.1-.026,1.448,1.448,0,0,0-.84.517,2.578,2.578,0,0,0-.218,1.83,3.647,3.647,0,0,0,1.75,1.79c.8.474,1.844.635,2.049,1.542.043.19-1.652.194-1.844.191H67.624a7,7,0,0,1-1.7-.144.355.355,0,0,1-.043-.019,1.262,1.262,0,0,1-.46-.75,4.655,4.655,0,0,0-.615-1.126A5.069,5.069,0,0,0,62.7,45.529ZM78.125,32.373a3.235,3.235,0,1,0,2.415,2.412A3.234,3.234,0,0,0,78.125,32.373Zm1.131,2.973a.858.858,0,0,0-1.237,0,.875.875,0,1,0,1.237,0Z" fill="#30ba78"/>
  </g>
</svg>
