<svg xmlns="http://www.w3.org/2000/svg" width="69.874" height="35.442" viewBox="0 0 69.874 35.442">
  <g id="Group_271" data-name="Group 271" transform="translate(-2113.771 -921.086)">
    <g id="Path_363" data-name="Path 363" transform="translate(2113.771 921.086)">
      <path id="Path_634" data-name="Path 634" d="M2217.2,931.845a1.11,1.11,0,0,0-1.569-.039l-.038.039a1.151,1.151,0,0,0,.012,1.629,1.092,1.092,0,0,0,.166.136,1.134,1.134,0,0,0,1.25,0,1.154,1.154,0,0,0,.313-1.6,1.109,1.109,0,0,0-.134-.164m-1.469-3.888a4.228,4.228,0,1,0,3.135,3.153,4.229,4.229,0,0,0-3.135-3.153m-20.038,17.2c-1.977-.736-2.742-.591-5.271-.554-1.752.023-1.816-.037-3.816-.037-.617,0-.846,2.981,1.389,3.6a5.71,5.71,0,0,1,2.774,1.2c.325.336.508.842-.245.842h-5.549a3.761,3.761,0,0,1-2.631-.609,8.992,8.992,0,0,1-2.205-3.569,37.487,37.487,0,0,0-1.947-3.963,15.864,15.864,0,0,0-6-6.233c-3.251-1.753-8.756-2.623-13.118.75-4.6,3.555-3.612,10.212.409,13.468a8.254,8.254,0,0,0,5.693,1.7c3.977-.233,6.91-3.185,6.182-6.815a4.494,4.494,0,0,0-2.008-2.992,5,5,0,0,0-2.523-.6,3.689,3.689,0,0,0-2.612.85,2.462,2.462,0,0,0-.29,3.072c.353.508.928.936.832,1.6a1.1,1.1,0,0,1-.874.879,2.118,2.118,0,0,1-1.931-.783,4.956,4.956,0,0,1-.985-5.2,6.17,6.17,0,0,1,5.945-3.422,8.62,8.62,0,0,1,7.364,5.062,9.492,9.492,0,0,1-.869,9.013c-3.931,5.784-13.638,5.1-18.148.223-2.83-3.06-4.367-6.03-4.151-11.56.151-3.908,2.391-7.756,5.247-10.465a35.562,35.562,0,0,1,17.01-8.733,38.109,38.109,0,0,1,11.538-.591,50.572,50.572,0,0,1,10.016,1.98,39.553,39.553,0,0,1,4.746,1.821,14.358,14.358,0,0,1,4.192,2.393c0-1.961-.076-4.117-.076-5.616a.787.787,0,0,1,.793-.783.8.8,0,0,1,.317.069c2.2,1.029,7.426,3.513,10.907,5.116,4.667,2.147,5,7.212,5.16,11.7a.6.6,0,0,1-.037.3c-.146.308-.933.225-1.222.228-.557.006-1.4,0-1.957.028-1.115.049-2.2.029-3.314-.028a9.4,9.4,0,0,1-5.386-2.15c-.133-.112-.564-.236-.768-.024a.534.534,0,0,0-.023.679,9.23,9.23,0,0,0,6.475,2.654,26.743,26.743,0,0,0,4.36-.085c1.209-.124,1.522-.208.33.69a12.6,12.6,0,0,1-3.5,1.765,18.6,18.6,0,0,1-5.5.958,21.67,21.67,0,0,1-3.382-.174c-.579-.073-1.154-.179-1.736-.239a4.624,4.624,0,0,0-1.433-.034,1.88,1.88,0,0,0-1.092.677,3.389,3.389,0,0,0-.282,2.392,4.752,4.752,0,0,0,2.272,2.341c1.036.619,2.4.831,2.66,2.016.054.248-2.145.255-2.395.25H2202.1a9.106,9.106,0,0,1-2.212-.188.244.244,0,0,1-.055-.025,1.648,1.648,0,0,1-.6-.985,6.1,6.1,0,0,0-.8-1.471,6.592,6.592,0,0,0-2.735-2.385m22.179-13.086a3.106,3.106,0,1,1-3.107-3.125,3.105,3.105,0,0,1,3.107,3.125" transform="translate(-2151.085 -921.086)" fill="#30ba78" fill-rule="evenodd"/>
    </g>
  </g>
</svg>
