<svg xmlns="http://www.w3.org/2000/svg" width="23.817" height="12" viewBox="0 0 23.817 12"><path d="M30.031,21.9a2.057,2.057,0,0,1,.272.5.559.559,0,0,0,.2.332.1.1,0,0,0,.019.008,3.1,3.1,0,0,0,.754.064h1c.085,0,.835,0,.816-.085-.09-.4-.554-.473-.907-.683a1.615,1.615,0,0,1-.775-.793,1.143,1.143,0,0,1,.1-.81.643.643,0,0,1,.372-.229,1.573,1.573,0,0,1,.489.012c.2.02.394.056.592.081a7.443,7.443,0,0,0,1.153.059,6.38,6.38,0,0,0,1.875-.324,4.283,4.283,0,0,0,1.192-.6c.406-.3.3-.274-.112-.232a9.219,9.219,0,0,1-1.486.029,3.157,3.157,0,0,1-2.207-.9.18.18,0,0,1,.008-.23c.069-.072.216-.03.261.008a3.219,3.219,0,0,0,1.836.728c.38.019.75.026,1.129.009.19-.008.477-.007.668-.009.1,0,.367.027.416-.077a.2.2,0,0,0,.013-.1c-.056-1.52-.168-3.235-1.759-3.962-1.187-.542-2.967-1.383-3.718-1.732a.267.267,0,0,0-.378.242c0,.508.026,1.238.026,1.9a4.893,4.893,0,0,0-1.429-.81,13.465,13.465,0,0,0-1.618-.616,17.347,17.347,0,0,0-3.414-.671,13.085,13.085,0,0,0-3.933.2,12.157,12.157,0,0,0-5.8,2.957A5.407,5.407,0,0,0,13.9,19.714a4.792,4.792,0,0,0,1.415,3.914c1.537,1.651,4.846,1.883,6.186-.075a3.194,3.194,0,0,0,.3-3.051,2.938,2.938,0,0,0-2.51-1.714,2.105,2.105,0,0,0-2.026,1.159,1.671,1.671,0,0,0,.336,1.76.725.725,0,0,0,.659.265.374.374,0,0,0,.3-.3c.033-.224-.163-.369-.283-.541a.831.831,0,0,1,.1-1.04,1.26,1.26,0,0,1,.891-.288,1.708,1.708,0,0,1,.86.2,1.521,1.521,0,0,1,.685,1.013,2.025,2.025,0,0,1-2.107,2.307,2.823,2.823,0,0,1-1.94-.577,2.911,2.911,0,0,1-.14-4.56,4.209,4.209,0,0,1,4.472-.254,5.4,5.4,0,0,1,2.046,2.111,12.656,12.656,0,0,1,.664,1.341,3.044,3.044,0,0,0,.752,1.208,1.289,1.289,0,0,0,.9.207h1.892c.257,0,.194-.171.083-.285a1.955,1.955,0,0,0-.945-.406C25.712,21.9,25.79,20.9,26,20.9c.682,0,.7.02,1.3.012a3.934,3.934,0,0,1,1.8.188A2.247,2.247,0,0,1,30.031,21.9ZM37,16.339a1.432,1.432,0,1,1-1.069-1.068A1.432,1.432,0,0,1,37,16.339Zm-.61.847a.388.388,0,0,1-.487-.6.38.38,0,0,1,.548,0A.389.389,0,0,1,36.387,17.185Z" transform="translate(-13.89 -12.944)" fill="#fff"/></svg>
