<?xml version="1.0" encoding="UTF-8"?>
<svg xmlns:dc="http://purl.org/dc/elements/1.1/" xmlns:cc="http://creativecommons.org/ns#" xmlns:rdf="http://www.w3.org/1999/02/22-rdf-syntax-ns#" xmlns:svg="http://www.w3.org/2000/svg" xmlns="http://www.w3.org/2000/svg" width="32" height="32">
<!-- opt-svg marker [don't remove]: 1600x1568.0001=>32x32 -->
<g transform="scale(0.02 0.0204081619637652)">
<path d="m 1600,896.00012 q 0,26 -19,45 -19,19 -45,19 h -224 q 0,170.99998 -67,289.99998 l 208,209 q 19,19 19,45 0,26 -19,45 -18,19 -45,19 -27,0 -45,-19 l -198,-197 q -5,5 -15,13 -10,8 -42,28.5 -32,20.5 -65,36.5 -33,16 -82.00003,29 -49,13 -97,13 V 576 h -128 v 896.0001 q -51,0 -101.49997,-13.5 -50.5,-13.5 -87,-33 -36.5,-19.5 -66,-39 -29.5,-19.5 -43.5,-32.5 l -15,-14 -182.99999,207 q -20,21 -48,21 -24,0 -43,-16 -19,-18 -20.5,-44.5 -1.5,-26.5 15.5,-46.5 L 346,1234.0001 q -58,-114 -58,-273.99998 H 64 q -26,0 -45,-19 -19,-19 -19,-45 0,-26.0001 19,-45.0001 19,-19 45,-19 H 288 V 538 L 115.00001,365 q -19.000003,-19 -19.000003,-45 0,-26 19.000003,-45 19,-19 45,-19 26,0 45,19 L 378,448 h 844 l 173,-173 q 19,-19 45,-19 26,0 45,19 19,19 19,45 0,26 -19,45 l -173,173 v 294.00002 h 224 q 26,0 45,19 19,19 19,45.0001 z M 1120,320 H 480 Q 480,187 573.5,93.5 666.99997,0 799.99997,0 932.99997,0 1026.5,93.5 1120,187 1120,320 z"/>
</g>
</svg>



