<?xml version="1.0" encoding="UTF-8"?>
<svg xmlns="http://www.w3.org/2000/svg" xmlns:xlink="http://www.w3.org/1999/xlink" width="32" height="32">
<!-- opt-svg marker [don't remove]: 2048x2048=>32x32 -->
<g transform="scale(0.015625 0.015625)">
<path d="m 895.9998,688.06108 v 448.00012 q 0,14 -9,23 -9,9 -23,9 H 543.99983 q -14,0 -23,-9 -9,-9 -9,-23 v -64.0001 q 0,-14 9,-23 9,-9 23,-9 H 767.9998 V 688.06108 q 0,-14 9,-23 9,-9 23,-9 h 64 q 14,0 23,9 9,9 9,23 z m 416,352.00002 q 0,-148.00002 -73,-273.00002 -73,-125 -198,-198 -125,-73 -273,-73 -147.99997,0 -272.99997,73 -125,73 -197.99999,198 -73,125 -73,273.00002 0,148.0001 73,273.0001 72.99999,125 197.99999,198 125,73 272.99997,73 148,0 273,-73 125,-73 198,-198 73,-125 73,-273.0001 z m 224,0 q 0,209.0001 -103,385.5001 -103,176.5 -279.5,279.5 -176.5,103 -385.5,103 -208.99997,0 -385.49997,-103 -176.49999,-103 -279.49999,-279.5 -103.00000666667,-176.5 -103.00000666667,-385.5001 0,-209.00002 103.00000666667,-385.50002 103,-176.5 279.49999,-279.5 176.5,-103 385.49997,-103 209,0 385.5,103 176.5,103 279.5,279.5 103,176.5 103,385.50002 z"/>
</g>
</svg>



