<?xml version="1.0" encoding="UTF-8"?>
<svg xmlns:dc="http://purl.org/dc/elements/1.1/" xmlns:cc="http://creativecommons.org/ns#" xmlns:rdf="http://www.w3.org/1999/02/22-rdf-syntax-ns#" xmlns:svg="http://www.w3.org/2000/svg" xmlns="http://www.w3.org/2000/svg" width="32" height="32">
<!-- opt-svg marker [don't remove]: 1536x1536.0001=>32x32 -->
<g transform="scale(0.0208333333333333 0.0208333319769966)">
<path d="m 1284,606 q 0,-28 -18,-46 l -91,-90 q -19,-19 -45,-19 -26,0 -45,19 L 677,877.00012 451,651.00004 q -19,-19 -45,-19 -26,0 -45,19 l -90.99999,89.99998 q -18,18 -18,46 0,27 18,45.0001 L 632,1194.0001 q 19,19 45,19 26.99997,0 45.99997,-19 L 1266,651.00004 q 18,-18 18,-45.00004 z m 252,162.00002 q 0,209.0001 -103,385.50008 -103,176.5 -279.5,279.5 -176.50003,103 -385.50003,103 -208.99997,0 -385.49997,-103 -176.49999,-103 -279.49999,-279.5 Q 0,977.00012 0,768.00002 0,559 103.00001,382.5 206.00001,206 382.5,103 559,0 767.99997,0 976.99997,0 1153.5,103 1330,206 1433,382.5 1536,559 1536,768.00002 z" style="fill:#7ac142;fill-opacity:1"/>
</g>
</svg>



