<?xml version="1.0" encoding="UTF-8"?>
<svg xmlns="http://www.w3.org/2000/svg" xmlns:xlink="http://www.w3.org/1999/xlink" width="32" height="32">
<!-- opt-svg marker [don't remove]: 2048x2048=>32x32 -->
<g transform="scale(0.015625 0.015625)">
<path d="M 1791.9998,1136.0612 V 304.06108 q 0,-13 -9.5,-22.5 -9.5,-9.5 -22.5,-9.5 H 159.99984 q -13,0 -22.5,9.5 -9.5,9.5 -9.5,22.5 v 832.00012 q 0,13 9.5,22.5 9.5,9.5 22.5,9.5 H 1759.9998 q 13,0 22.5,-9.5 9.5,-9.5 9.5,-22.5 z m 128,-832.00012 V 1392.0612 q 0,66 -47,113 -47,47 -113,47 h -544 q 0,37 16,77.5 16,40.5 32,71 16,30.5 16,43.5 0,26 -19,45 -19,19 -45,19 h -512 q -25.99997,0 -44.99997,-19 -19,-19 -19,-45 0,-14 16,-44 16,-30 32,-70 15.99997,-40 15.99997,-78 H 159.99984 q -66.000007,0 -113.000007,-47 -46.99999966667,-47 -46.99999966667,-113 V 304.06108 q 0,-66 46.99999966667,-113.00001 47,-47 113.000007,-47 H 1759.9998 q 66,0 113,47 47,47.00001 47,113.00001 z"/>
</g>
</svg>



