<?xml version="1.0" encoding="UTF-8"?>
<svg xmlns:dc="http://purl.org/dc/elements/1.1/" xmlns:cc="http://creativecommons.org/ns#" xmlns:rdf="http://www.w3.org/1999/02/22-rdf-syntax-ns#" xmlns:svg="http://www.w3.org/2000/svg" xmlns="http://www.w3.org/2000/svg" width="32" height="32">
<!-- opt-svg marker [don't remove]: 1536x1536.0001=>32x32 -->
<g transform="scale(0.0208333333333333 0.0208333319769966)">
<path d="m 767.99997,0 q 209,0 385.50003,103 176.5,103 279.5,279.5 103,176.5 103,385.50002 0,209.0001 -103,385.50008 -103,176.5 -279.5,279.5 -176.50003,103 -385.50003,103 -208.99997,0 -385.49997,-103 -176.49999,-103 -279.49999,-279.5 Q 0,977.00012 0,768.00002 0,559 103.00001,382.5 206.00001,206 382.5,103 559,0 767.99997,0 z m 128,1247.0001 v -190 q 0,-14 -9,-23.5 -9,-9.5 -22,-9.5 H 673 q -13,0 -23,10 -10,10 -10,23 v 190 q 0,13 10,23 10,10 23,10 h 191.99997 q 13,0 22,-9.5 9,-9.5 9,-23.5 z m -2,-343.99998 18,-621.00012 q 0,-12 -10,-18 -10,-8 -24,-8 H 658 q -14,0 -24,8 -10,6 -10,18 l 17,621.00012 q 0,10 10,17.5 10,7.5 24,7.5 h 184.99997 q 14,0 23.5,-7.5 9.5,-7.5 10.5,-17.5 z" style="fill:#a81a1a;fill-opacity:1"/>
</g>
</svg>



