<?xml version="1.0" encoding="UTF-8"?>
<svg xmlns="http://www.w3.org/2000/svg" xmlns:xlink="http://www.w3.org/1999/xlink" width="32" height="32">
<!-- opt-svg marker [don't remove]: 2048x2048=>32x32 -->
<g transform="scale(0.015625 0.015625)">
<path d="M 319.99983,912.06112 H 831.9998 V 720.06108 q 0,-106 -75,-181 -74.99997,-75 -180.99997,-75 -106,0 -181,75 -75,75 -75,181 v 192.00004 z m 831.99997,95.99998 v 576.0001 q 0,40 -28,68 -28,28 -68,28 H 95.999833 q -40,0 -68,-28 -27.99999966667,-28 -27.99999966667,-68 v -576.0001 q 0,-39.99998 27.99999966667,-67.99998 28,-28 68,-28 H 127.99984 V 720.06108 q 0,-184 132,-316 131.99999,-132 315.99999,-132 183.99997,0 315.99997,132 132,132 132,316 v 192.00004 h 32 q 40,0 68,28 28,28 28,67.99998 z"/>
</g>
</svg>



