<?xml version="1.0" encoding="UTF-8"?>
<svg xmlns="http://www.w3.org/2000/svg" xmlns:xlink="http://www.w3.org/1999/xlink" width="32" height="32">
<!-- opt-svg marker [don't remove]: 2048x2048=>32x32 -->
<g transform="scale(0.015625 0.015625)">
<path d="m 895.9998,1520.0612 v -192 q 0,-14 -9,-23 -9,-9 -23,-9 H 671.99983 q -14,0 -23,9 -9,9 -9,23 v 192 q 0,14 9,23 9,9 23,9 H 863.9998 q 14,0 23,-9 9,-9 9,-23 z m 256,-672.00012 q 0,-88 -55.5,-163 -55.5,-75 -138.5,-116 -83,-41 -170,-41 -242.99997,0 -370.99997,213 -15,24 8,42 l 132,100 q 7,6 19,6 16,0 25,-12 53,-68 86,-92 33.99997,-24 85.99997,-24 48,0 85.5,26 37.5,26 37.5,59 0,38 -20,61.00004 -20,23 -68,45 -63,28 -115.49997,86.49998 -52.5,58.5 -52.5,125.5001 v 36 q 0,14 9,23 9,9 23,9 H 863.9998 q 14,0 23,-9 9,-9 9,-23 0,-19 21.5,-49.5 21.5,-30.5 54.5,-49.5 32,-18.0001 49,-28.5001 17,-10.5 46,-35 29,-24.5 44.5,-47.99998 15.5,-23.5 28,-60.5 12.5,-37.00004 12.5,-81.00004 z m 384,192.00002 q 0,209.0001 -103,385.5001 -103,176.5 -279.5,279.5 -176.5,103 -385.5,103 -208.99997,0 -385.49997,-103 -176.49999,-103 -279.49999,-279.5 -103.00000666667,-176.5 -103.00000666667,-385.5001 0,-209.00002 103.00000666667,-385.50002 103,-176.5 279.49999,-279.5 176.5,-103 385.49997,-103 209,0 385.5,103 176.5,103 279.5,279.5 103,176.5 103,385.50002 z"/>
</g>
</svg>



