<?xml version="1.0" encoding="UTF-8"?>
<svg xmlns="http://www.w3.org/2000/svg" xmlns:xlink="http://www.w3.org/1999/xlink" width="32" height="32">
<!-- opt-svg marker [don't remove]: 2048x2048=>32x32 -->
<g transform="scale(0.015625 0.015625)">
<path d="m 1439.9998,592.06108 q 0,-40 -28,-68 -28,-28 -68,-28 -40,0 -68,28 -28,28 -28,68 0,40 28,68 28,28 68,28 40,0 68,-28 28,-28 28,-68 z m 224,-288 q 0,249 -75.5,430.5 -75.5,181.50004 -253.5,360.50002 -81,80.0001 -195,176.0001 l -20,379 q -2,16 -16,26 l -384,224 q -7,4 -16,4 -11.99997,0 -22.99997,-9 l -64,-64 q -13,-14 -8,-32 l 85,-276 -281,-281 -275.99999,85 q -3,1 -9,1 -14,0 -23,-9 l -64.000007,-64 q -17,-19 -5,-39 L 259.99984,832.06108 q 10,-14 26,-16 l 378.99999,-20 q 95.99997,-114 175.99997,-195 188,-187 358,-258 170,-71 431,-71 14,0 24,9.5 10,9.5 10,22.5 z"/>
</g>
</svg>



