<?xml version="1.0" encoding="UTF-8"?>
<svg xmlns="http://www.w3.org/2000/svg" xmlns:xlink="http://www.w3.org/1999/xlink" width="32" height="32">
<!-- opt-svg marker [don't remove]: 2048x2048=>32x32 -->
<g transform="scale(0.015625 0.015625)">
<path d="m 1148.9998,1266.0612 q 0,-26 -19,-45 l -181,-181.0001 181,-181.00002 q 19,-19 19,-45 0,-27 -19,-46 l -90,-90 q -19,-19 -46,-19 -26,0 -45,19 l -181,181 -180.99997,-181 q -19,-19 -45,-19 -27,0 -46,19 l -90,90 q -19,19 -19,46 0,26 19,45 l 181,181.00002 -181,181.0001 q -19,19 -19,45 0,27 19,46 l 90,90 q 19,19 46,19 26,0 45,-19 l 180.99997,-181 181,181 q 19,19 45,19 27,0 46,-19 l 90,-90 q 19,-19 19,-46 z m 387,-226.0001 q 0,209.0001 -103,385.5001 -103,176.5 -279.5,279.5 -176.5,103 -385.5,103 -208.99997,0 -385.49997,-103 -176.49999,-103 -279.49999,-279.5 -103.00000666667,-176.5 -103.00000666667,-385.5001 0,-209.00002 103.00000666667,-385.50002 103,-176.5 279.49999,-279.5 176.5,-103 385.49997,-103 209,0 385.5,103 176.5,103 279.5,279.5 103,176.5 103,385.50002 z"/>
</g>
</svg>



