<?xml version="1.0" encoding="UTF-8"?>
<svg xmlns:dc="http://purl.org/dc/elements/1.1/" xmlns:cc="http://creativecommons.org/ns#" xmlns:rdf="http://www.w3.org/1999/02/22-rdf-syntax-ns#" xmlns:svg="http://www.w3.org/2000/svg" xmlns="http://www.w3.org/2000/svg" width="32" height="32">
<!-- opt-svg marker [don't remove]: 2048x2048=>32x32 -->
<g transform="scale(0.015625 0.015625)">
<path d="m 1023.9998,1519.0612 v -190 q 0,-14 -9.5,-23.5 -9.5,-9.5 -22.5,-9.5 h -192 q -13,0 -22.5,9.5 -9.5,9.5 -9.5,23.5 v 190 q 0,14 9.5,23.5 9.5,9.5 22.5,9.5 h 192 q 13,0 22.5,-9.5 9.5,-9.5 9.5,-23.5 z m -2,-374 18,-459.00012 q 0,-12 -10,-19 -13,-11 -24,-11 h -220 q -11,0 -24,11 -10,7 -10,21 l 17,457.00012 q 0,10 10,16.5 10,6.5 24,6.5 h 185 q 14,0 23.5,-6.5 9.5,-6.5 10.5,-16.5 z m -14,-934.00012 768,1408.00012 q 35,63 -2,126 -17,29 -46.5,46 -29.5,17 -63.5,17 H 127.99984 q -34.000007,0 -63.500007,-17 -29.5,-17 -46.5,-46 -37,-63 -2,-126 L 783.9998,211.06108 q 17,-31.00001 47,-49.00001 30,-18 65,-18 35,0 65,18 30,18 47,49.00001 z" style="fill:#ffab47;fill-opacity:1"/>
</g>
</svg>



