<?xml version="1.0" encoding="UTF-8"?>
<svg xmlns="http://www.w3.org/2000/svg" xmlns:xlink="http://www.w3.org/1999/xlink" width="32" height="32">
<!-- opt-svg marker [don't remove]: 1024x1024=>32x32 -->
<g transform="scale(0.03125 0.03125)">
<path d="m 425.5,6.1095786 c -29.671,0 -53.938,24.2669994 -53.938,53.9379964 V 413.11059 c 0.33,-0.052 0.185,-0.045 0.75,-0.125 1.244,-0.178 1.808,-0.25 1.875,-0.25 1.546,-0.228 3.37,-0.482 5.75,-0.75 2.484,-0.281 4.109,-0.365 4.875,-0.438 1.545,-0.146 3.564,-0.383 6.063,-0.563 h 0.063 c 1.898,-0.137 3.174,-0.21 3.875,-0.25 0.016,-0.001 0.046,10e-4 0.063,0 0.691,-0.04 1.603,-0.076 2.625,-0.125 0.807,-0.041 -0.37,0.025 0.188,0 1.022,-0.045 1.547,-0.066 1.625,-0.063 1.287,-0.06 2.533,-0.096 3.563,-0.125 1.986,-0.055 4.56,-0.125 7.688,-0.125 69.659,0 133.216,26.649 179.5,70.5 h 18.813 c 0,6.008 -0.873,11.752 -2.313,17.188 11.742,13.488 22.027,28.178 30.563,44 21.392,-12.57 46.24,-19.875 72.5,-19.875 8.261,0 16.119,0.739 23.5,1.938 -4.502,-0.733 -4.26,-0.801 0.875,0.063 l 0.938,0.188 c 0.02,0.004 0.044,-0.004 0.063,0 0.063,0.013 0.381,0.086 0.563,0.125 0.263,0.057 0.243,0.063 0.813,0.188 0.384,0.084 0.012,-0.058 0.563,0.063 v 0.063 h 0.188 c -0.297,-0.065 0.709,0.139 2.5,0.563 0.091,0.02 0.164,0.044 0.25,0.063 0.111,0.023 0.211,0.041 0.313,0.063 0.857,0.208 1.734,0.435 2.688,0.688 1.806,0.477 3.707,1.011 5.688,1.625 0.159,0.049 1.456,0.4 3.938,1.25 h 0.063 c -0.596,-0.205 0.002,0.045 1.625,0.625 0.054,0.02 0.005,-0.021 0.063,0 3.373,1.21 4.819,1.913 4.25,1.688 h 0.063 c 1.754,0.696 2.12,0.842 1.125,0.438 0.648,0.263 2.25,0.906 4.813,2.063 0.091,0.042 0.006,0.008 0.125,0.063 0.193,0.085 0.243,0.071 0.5,0.188 0.026,0.012 -0.009,0.058 0,0.063 0.022,0.006 0.057,0.001 0.063,0 4.085,1.871 7.543,3.713 10.375,5.313 0.209,0.119 0.138,0.053 0.375,0.188 v 0.063 h 0.063 c 2.362,1.345 3.832,2.295 4.563,2.75 0.528,0.329 2.197,1.296 4.875,3.125 3.057,2.088 6.085,4.33 9.063,6.75 0.059,0.048 0.128,0.077 0.188,0.125 0.034,0.028 0.012,0.057 0,0.063 -0.012,-0.008 0.026,-0.021 0.125,0.063 0.209,0.176 0.214,0.155 0.188,0.125 0.207,0.181 0.467,0.44 0.75,0.688 l -0.063,0.063 c 1.386,1.154 2.727,2.353 4.063,3.563 2.114,-3.331 3.375,-7.252 3.375,-11.438 0,-11.801 -21.625,-36.091 -21.625,-64.75 h 183.438 c 29.671,0 53.938,-24.267 53.938,-53.938 V 60.057575 c 0,-29.670997 -24.267,-53.9379964 -53.938,-53.9379964 H 425.513 z m 0,43.1249964 h 539.438 c 5.732,0 10.813,5.081 10.813,10.813 V 340.54759 c 0,5.732 -5.081,10.813 -10.813,10.813 H 425.5 c -5.732,0 -10.813,-5.081 -10.813,-10.813 V 60.047575 c 0,-5.732 5.081,-10.813 10.813,-10.813 z M 410.563,457.35959 c -2.135,0 -4.256,0.066 -6.375,0.125 -1.249,0.035 -2.445,0.069 -3.688,0.125 -0.199,0.008 -0.426,-0.01 -0.625,0 -0.776,0.036 -1.539,0.08 -2.313,0.125 -1.083,0.062 -2.234,0.11 -3.313,0.188 -1.673,0.12 -3.339,0.281 -5,0.438 -1.344,0.127 -2.664,0.224 -4,0.375 -1.938,0.219 -3.829,0.482 -5.75,0.75 -0.201,0.028 -0.362,0.034 -0.563,0.063 -0.536,0.076 -1.09,0.17 -1.625,0.25 -2.253,0.337 -4.523,0.721 -6.75,1.125 -2.587,0.469 -5.199,1.005 -7.75,1.563 -2.084,0.456 -4.066,0.924 -6.125,1.438 -0.464,0.116 -0.975,0.194 -1.438,0.313 -2.187,0.561 -4.406,1.249 -6.563,1.875 -0.31,0.09 -0.628,0.159 -0.938,0.25 -1.311,0.387 -2.513,0.777 -3.813,1.188 -1.361,0.43 -2.777,0.795 -4.125,1.25 -0.246,0.083 -0.505,0.166 -0.75,0.25 -1.978,0.676 -3.863,1.457 -5.813,2.188 -2.374,0.889 -4.796,1.782 -7.125,2.75 -1.936,0.805 -3.909,1.642 -5.813,2.5 -1.479,0.667 -2.916,1.364 -4.375,2.063 -1.5,0.718 -2.959,1.436 -4.438,2.188 -0.442,0.225 -0.935,0.397 -1.375,0.625 -1.02,0.527 -1.99,1.082 -3,1.625 -0.498,0.268 -0.942,0.603 -1.438,0.875 -2.162,1.185 -4.327,2.369 -6.438,3.625 -0.084,0.05 -0.228,0.075 -0.313,0.125 -1.841,1.099 -3.637,2.224 -5.438,3.375 -0.907,0.581 -1.728,1.219 -2.625,1.813 -0.489,0.324 -1.014,0.672 -1.5,1 -0.917,0.618 -1.845,1.181 -2.75,1.813 -0.115,0.08 -0.26,0.169 -0.375,0.25 -0.514,0.36 -0.99,0.76 -1.5,1.125 -1.217,0.87 -2.367,1.731 -3.563,2.625 -0.263,0.197 -0.55,0.364 -0.813,0.563 -1.88,1.42 -3.738,2.895 -5.563,4.375 -0.037,0.03 -0.151,0.033 -0.188,0.063 -1.861,1.511 -3.636,3.116 -5.438,4.688 -1.849,1.613 -3.715,3.262 -5.5,4.938 -1.796,1.686 -3.521,3.378 -5.25,5.125 -3.283,3.317 -6.469,6.722 -9.5,10.25 -0.423,0.493 -0.832,1.004 -1.25,1.5 -1.169,1.388 -2.309,2.707 -3.438,4.125 -0.116,0.146 -0.259,0.291 -0.375,0.438 -4.529,5.726 -8.653,11.747 -12.5,17.938 -2.559,4.117 -5.012,8.32 -7.25,12.625 -6.911,13.295 -12.246,27.501 -15.813,42.313 101.421,5.326 181.875,82.479 181.875,176.938 0,6.119 -0.341,12.228 -1,18.188 -10.014,-89.276 -92.188,-158.938 -192.063,-158.938 -6.579,0 -13.15,0.198 -19.688,0.688 -0.168,0.021 -0.333,0.041 -0.5,0.063 -100.01,12.736 -176.937,89.743 -176.938,182.875 0,102.041 92.302,184.74991 206.188,184.74991 3.131,0 6.216,-0.064 9.313,-0.188 4.187,0.294 8.539,0.438 12.938,0.438 h 618.625 c 13.743,0 24.741,-1.687 33.563,-4.938 79.711,-16.79496 139.688,-90.96391 139.688,-179.81291 0,-92.841 -65.566,-169.491 -150.625,-181.563 -2.292,-0.079 -4.625,-0.125 -6.938,-0.125 -90.16,0 -164.977,60.929 -179.375,140.938 -0.026,-1.178 -0.063,-2.378 -0.063,-3.563 0,-69.279 44.781,-128.809 108.938,-154.938 -4.748,-15.894 -14.304,-29.845 -27.188,-40.375 -0.024,-0.02 -0.038,-0.043 -0.063,-0.063 -1.933,-1.576 -3.988,-3.083 -6.063,-4.5 -1.039,-0.71 -2.115,-1.394 -3.188,-2.063 -1,-0.623 -1.972,-1.227 -3,-1.813 -0.087,-0.049 -0.163,-0.076 -0.25,-0.125 -2.239,-1.265 -4.513,-2.483 -6.875,-3.563 -0.134,-0.061 -0.304,-0.127 -0.438,-0.188 -1.054,-0.476 -2.11,-0.938 -3.188,-1.375 -0.25,-0.102 -0.562,-0.213 -0.813,-0.313 -0.958,-0.379 -1.837,-0.776 -2.813,-1.125 -0.376,-0.135 -0.747,-0.245 -1.125,-0.375 -0.857,-0.294 -1.756,-0.543 -2.625,-0.813 -1.249,-0.387 -2.539,-0.726 -3.813,-1.063 -0.654,-0.173 -1.34,-0.403 -2,-0.563 -0.582,-0.14 -1.163,-0.246 -1.75,-0.375 -0.065,-0.012 -0.122,-0.051 -0.188,-0.063 -0.153,-0.034 -0.347,-0.029 -0.5,-0.063 -0.065,-0.014 -0.123,-0.049 -0.188,-0.063 -0.184,-0.031 -0.378,-0.033 -0.563,-0.063 -5.186,-0.842 -10.559,-1.313 -16,-1.313 -51.59,0 -93.375,39.551 -93.375,88.375 0,19.402 6.552,37.359 17.75,51.938 -20.698,-16.215 -33.875,-40.772 -33.875,-68.188 0,-15.418 4.165,-29.883 11.5,-42.5 l -9,-20.5 c -31.214,-71.154 -105.071,-120.875 -192.063,-120.875 z"/>
</g>
</svg>



