<?xml version="1.0" encoding="UTF-8"?>
<svg xmlns="http://www.w3.org/2000/svg" xmlns:xlink="http://www.w3.org/1999/xlink" width="32" height="32">
<!-- opt-svg marker [don't remove]: 1024x1024=>32x32 -->
<g transform="scale(0.03125 0.03125)">
<path d="m 225.682,1.5555785 c -10.901,0 -19.745,8.7560005 -19.745,19.6569995 V 148.32059 c 0,10.901 8.844,19.657 19.745,19.657 h 570.045 c 10.901,0 19.657,-8.756 19.657,-19.657 V 21.212578 c 0,-10.900999 -8.756,-19.6569995 -19.657,-19.6569995 H 225.682 z m 49.98,53.9459965 c 16.145,0 29.265,13.119 29.265,29.265005 0,16.146 -13.119,29.26501 -29.265,29.26501 -16.145,0 -29.265,-13.11901 -29.265,-29.26501 0,-16.146005 13.119,-29.265005 29.265,-29.265005 z m -49.98,127.548015 c -10.901,0 -19.745,8.756 -19.745,19.657 v 127.108 c 0,10.901 8.844,19.657 19.745,19.657 h 570.045 c 10.901,0 19.657,-8.756 19.657,-19.657 v -127.108 c 0,-10.901 -8.756,-19.657 -19.657,-19.657 H 225.682 z m 49.98,53.946 c 16.145,0 29.265,13.119 29.265,29.265 0,16.146 -13.119,29.265 -29.265,29.265 -16.145,0 -29.265,-13.119 -29.265,-29.265 0,-16.146 13.119,-29.265 29.265,-29.265 z m -49.98,128.165 c -10.901,0 -19.745,8.844 -19.745,19.745 v 127.019 c 0,10.901 8.844,19.657 19.745,19.657 h 570.045 c 10.901,0 19.657,-8.756 19.657,-19.657 v -127.019 c 0,-10.901 -8.756,-19.745 -19.657,-19.745 H 225.682 z m 49.98,54.034 c 16.145,0 29.265,13.031 29.265,29.177 0,16.146 -13.119,29.265 -29.265,29.265 -16.145,0 -29.265,-13.119 -29.265,-29.265 0,-16.146 13.119,-29.177 29.265,-29.177 z m -49.98,126.579 c -10.901,0 -19.745,8.756 -19.745,19.657 v 437.73691 c 0,10.901 8.844,19.657 19.745,19.657 h 570.045 c 10.901,0 19.657,-8.756 19.657,-19.657 V 565.43059 c 0,-10.901 -8.756,-19.657 -19.657,-19.657 H 225.682 z m 27.326,393.69897 c -4.328,0 -7.845,3.517 -7.845,7.845 v 26.44398 c 0,4.328 3.517,7.845 7.845,7.845 h 88.235 c 4.328,0 7.845,-3.517 7.845,-7.845 v -26.44398 c 0,-4.328 -3.517,-7.845 -7.845,-7.845 h -88.235 z m 142.357,0 c -4.328,0 -7.845,3.517 -7.845,7.845 v 26.44398 c 0,4.328 3.517,7.845 7.845,7.845 H 483.6 c 4.328,0 7.845,-3.517 7.845,-7.845 v -26.44398 c 0,-4.328 -3.517,-7.845 -7.845,-7.845 h -88.235 z m 142.357,0 c -4.328,0 -7.845,3.517 -7.845,7.845 v 26.44398 c 0,4.328 3.517,7.845 7.845,7.845 h 88.235 c 4.328,0 7.845,-3.517 7.845,-7.845 v -26.44398 c 0,-4.328 -3.517,-7.845 -7.845,-7.845 h -88.235 z m 142.357,0 c -4.328,0 -7.845,3.517 -7.845,7.845 v 26.44398 c 0,4.328 3.517,7.845 7.845,7.845 h 88.235 c 4.328,0 7.845,-3.517 7.845,-7.845 v -26.44398 c 0,-4.328 -3.517,-7.845 -7.845,-7.845 h -88.235 z"/>
</g>
</svg>



