<?xml version="1.0" encoding="UTF-8"?>
<svg xmlns="http://www.w3.org/2000/svg" xmlns:xlink="http://www.w3.org/1999/xlink" width="32" height="32">
<!-- opt-svg marker [don't remove]: 1024x1024=>32x32 -->
<g transform="scale(0.03125 0.03125)">
<path d="m 251.18,21.238578 c -18.45,0 -33.26,15.437 -33.26,34.617997 V 479.90059 c 48.501,-47.813 116.934,-77.67 192.644,-77.67 98.466,0 184.635,50.394 230.746,125.476 19.706,-9.199 41.932,-14.329 65.263,-14.329 20.733,0 40.516,4.076 58.472,11.413 V 55.856575 c 0,-19.180997 -14.81,-34.617997 -33.26,-34.617997 H 251.18 z m 70.166,122.813012 h 326.753 c 16.244,0 29.299,14.334 29.299,32.146 0,17.812 -13.055,32.146 -29.299,32.146 H 321.346 c -16.244,0 -29.299,-14.334 -29.299,-32.146 0,-17.812 13.055,-32.146 29.299,-32.146 z m 0,145.005 h 326.753 c 16.244,0 29.299,14.334 29.299,32.146 0,17.812 -13.055,32.209 -29.299,32.209 H 321.346 c -16.244,0 -29.299,-14.398 -29.299,-32.209 0,-17.811 13.055,-32.146 29.299,-32.146 z m 89.218,168.273 c -2.135,0 -4.231,0.068 -6.35,0.127 -1.249,0.035 -2.467,0.071 -3.71,0.127 -0.199,0.008 -0.43,-0.01 -0.629,0 -0.776,0.036 -1.553,0.082 -2.326,0.127 -1.083,0.062 -2.191,0.113 -3.269,0.19 -1.673,0.12 -3.369,0.287 -5.03,0.444 -1.344,0.127 -2.688,0.229 -4.024,0.38 -1.938,0.219 -3.801,0.493 -5.721,0.761 -0.201,0.028 -0.366,0.035 -0.566,0.063 -0.536,0.076 -1.1,0.173 -1.635,0.254 -2.253,0.337 -4.5,0.737 -6.727,1.141 -2.587,0.469 -5.182,0.964 -7.733,1.522 -2.084,0.456 -4.103,0.944 -6.162,1.458 -0.464,0.116 -0.984,0.198 -1.446,0.317 -2.187,0.561 -4.382,1.213 -6.539,1.839 -0.31,0.09 -0.634,0.162 -0.943,0.254 -1.311,0.387 -2.536,0.795 -3.835,1.205 -1.361,0.43 -2.739,0.813 -4.087,1.268 -0.246,0.083 -0.509,0.17 -0.754,0.254 -1.978,0.676 -3.898,1.425 -5.847,2.156 -2.374,0.889 -4.776,1.822 -7.105,2.79 -1.936,0.805 -3.88,1.615 -5.784,2.473 -1.479,0.667 -2.942,1.393 -4.401,2.092 -1.5,0.718 -2.986,1.404 -4.464,2.156 -0.442,0.225 -0.88,0.407 -1.32,0.634 -1.02,0.527 -2.008,1.106 -3.018,1.649 -0.498,0.268 -0.951,0.553 -1.446,0.824 -2.162,1.185 -4.303,2.422 -6.413,3.677 -0.084,0.05 -0.23,0.076 -0.314,0.127 -1.841,1.099 -3.669,2.209 -5.47,3.36 -0.907,0.581 -1.744,1.182 -2.641,1.775 -0.489,0.324 -1.023,0.687 -1.509,1.014 -0.917,0.618 -1.798,1.207 -2.704,1.839 -0.115,0.08 -0.262,0.173 -0.377,0.254 -0.514,0.36 -0.999,0.713 -1.509,1.078 -1.217,0.87 -2.388,1.769 -3.584,2.663 -0.263,0.197 -0.555,0.373 -0.817,0.571 -1.88,1.42 -3.708,2.895 -5.533,4.375 -0.037,0.03 -0.152,0.033 -0.189,0.063 -1.861,1.511 -3.668,3.12 -5.47,4.692 -1.849,1.613 -3.685,3.207 -5.47,4.882 -1.796,1.686 -3.552,3.388 -5.281,5.136 -3.283,3.317 -6.463,6.743 -9.494,10.271 -0.423,0.493 -0.84,1.025 -1.257,1.522 -1.169,1.388 -2.267,2.703 -3.395,4.121 -0.116,0.146 -0.261,0.297 -0.377,0.444 -4.529,5.726 -8.665,11.753 -12.512,17.943 -2.559,4.117 -4.992,8.312 -7.23,12.617 -6.911,13.295 -12.277,27.479 -15.844,42.29 101.421,5.326 181.893,82.501 181.893,176.96 0,6.119 -0.347,12.174 -1.006,18.133 -10.014,-89.276 -92.204,-158.89 -192.078,-158.89 -6.579,0 -13.141,0.207 -19.679,0.697 -0.168,0.021 -0.336,0.042 -0.503,0.063 -100.01,12.736 -176.926,89.725 -176.926,182.857 0,102.041 92.276,184.75891 206.162,184.75891 3.131,0 6.271,-0.066 9.368,-0.19 4.187,0.294 8.491,0.444 12.889,0.444 h 618.612 c 13.743,0 24.753,-1.695 33.574,-4.945 79.711,-16.79496 139.705,-90.96491 139.705,-179.81291 0,-92.841 -65.586,-169.517 -150.645,-181.588 -2.292,-0.079 -4.604,-0.127 -6.916,-0.127 -90.16,0 -164.98,60.938 -179.378,140.947 -0.026,-1.178 -0.063,-2.366 -0.063,-3.551 0,-69.279 44.803,-128.83 108.96,-154.959 -4.748,-15.894 -14.341,-29.859 -27.224,-40.388 -0.024,-0.02 -0.039,-0.044 -0.063,-0.063 -1.933,-1.576 -3.961,-3.085 -6.036,-4.502 -1.039,-0.71 -2.134,-1.361 -3.207,-2.029 -1,-0.623 -1.99,-1.253 -3.018,-1.839 -0.087,-0.049 -0.165,-0.078 -0.251,-0.127 -2.239,-1.265 -4.491,-2.471 -6.853,-3.551 -0.134,-0.061 -0.306,-0.129 -0.44,-0.19 -1.054,-0.476 -2.13,-0.894 -3.207,-1.331 -0.25,-0.102 -0.504,-0.217 -0.754,-0.317 -0.958,-0.379 -1.854,-0.793 -2.829,-1.141 -0.376,-0.135 -0.753,-0.25 -1.132,-0.38 -0.857,-0.294 -1.772,-0.555 -2.641,-0.824 -1.249,-0.387 -2.499,-0.741 -3.772,-1.078 -0.654,-0.173 -1.351,-0.348 -2.012,-0.507 -0.582,-0.14 -1.173,-0.252 -1.76,-0.38 -0.065,-0.012 -0.123,-0.052 -0.189,-0.063 -0.153,-0.034 -0.35,-0.03 -0.503,-0.063 -0.065,-0.014 -0.124,-0.05 -0.189,-0.063 -0.184,-0.031 -0.381,-0.033 -0.566,-0.063 -5.186,-0.842 -10.529,-1.332 -15.97,-1.332 -51.59,0 -93.43,39.561 -93.43,88.385 0,19.402 6.595,37.349 17.793,51.928 -20.698,-16.215 -33.889,-40.744 -33.889,-68.159 0,-15.418 4.171,-29.927 11.506,-42.544 l -8.991,-20.479 c -31.214,-71.154 -105.087,-120.911 -192.078,-120.911 z"/>
</g>
</svg>



