<?xml version="1.0" encoding="UTF-8"?>
<svg xmlns="http://www.w3.org/2000/svg" xmlns:xlink="http://www.w3.org/1999/xlink" width="32" height="32">
<!-- opt-svg marker [don't remove]: 1024x1024=>32x32 -->
<g transform="scale(0.03125 0.03125)">
<path d="m 800.994,90.54158 c -8.652,0.196 -17.688,7.392 -27.004,21.09201 l -53.688,64.873 c -17.056,21.796 -5.402,45.977 8.309,70.306 -15.462,18.09 -33.534,38.326 -51.611,58.641 l -166.656,-95.871 -503.964,292.088 0.639,109.933 499.65,291.928 511.474,-295.923 -0.16,-105.938 -288.733,-166.177 43.142,-52.09 c 23.488,-1.434 45.433,20.494 70.785,-11.185 l 55.605,-68.548 c 15.85,-17.539 3.469,-28.331 -8.788,-39.147 L 816.013,97.73358 c -4.936,-5.071 -9.829,-7.308 -15.02,-7.19 z m 11.025,53.36901 c 5.083,-0.377 10.209,1.332 14.381,5.113 l 14.86,13.262 c 8.342,7.563 9.155,20.683 1.917,29.401 l -35.153,42.503 c -7.237,8.718 -19.94,9.64 -28.282,2.077 l -14.7,-13.422 c -8.343,-7.563 -9.155,-20.683 -1.917,-29.401 l 35.313,-42.343 c 3.619,-4.359 8.499,-6.814 13.582,-7.19 z m -301.675,120.478 133.261,78.774 c -7.06,8.039 -14.086,16.04 -20.453,23.489 -37.075,-21.559 -70.044,-55.951 -91.877,-30.519 -28.893,28.283 -57.34,64.28 -86.923,102.742 123.827,-58.863 138.342,89.05 250.065,97.15 22.709,-29.448 36.439,-47.025 46.178,-73.821 8.622,-30.983 -44.467,-45.713 -62.316,-65.033 l 18.695,-22.53 215.072,127.03 -404.418,240.637 -411.768,-238.72 414.484,-239.199 z m -216.35,212.675 -6.391,9.108 2.716,9.108 10.066,-3.515 6.391,-11.025 -12.783,-3.675 z m 235.524,46.657 -12.783,12.783 14.541,5.433 8.309,-10.066 -10.066,-8.149 z m -130.545,25.566 -10.067,12.783 9.108,8.149 15.499,-8.149 -14.54,-12.783 z m -105.139,6.711 -12.783,12.783 14.541,5.433 8.309,-10.066 -10.067,-8.149 z m 232.169,19.813 -7.51,11.664 10.386,5.273 4.953,-7.35 -7.83,-9.587 z m -86.923,31.478 -7.031,9.268 6.391,6.072 10.706,-6.072 -10.067,-9.268 z m 154.353,16.777 -11.025,11.824 16.458,5.592 14.7,-10.066 -20.133,-7.35 z m -92.996,32.757 -3.515,15.339 11.025,6.711 6.871,-11.025 -14.381,-11.025 z"/>
</g>
</svg>



