<?xml version="1.0" encoding="UTF-8"?>
<svg xmlns="http://www.w3.org/2000/svg" xmlns:xlink="http://www.w3.org/1999/xlink" width="32" height="32">
<!-- opt-svg marker [don't remove]: 1024x1024=>32x32 -->
<g transform="scale(0.03125 0.03125)">
<path d="m 173.521,3.9995786 c -19.457,0 -35.093,20.9739994 -35.093,47.0259964 V 145.54759 H 272.745 V 51.025575 c 0,-26.051997 -15.636,-47.0259964 -35.093,-47.0259964 h -64.131 z m 300.436,0 c -19.457,0 -35.093,20.9739994 -35.093,47.0259964 V 454.03659 H 573.181 V 51.025575 c 0,-26.051997 -15.636,-47.0259964 -35.093,-47.0259964 h -64.131 z m 300.435,0 c -19.457,0 -35.093,20.9739994 -35.093,47.0259964 V 217.02659 H 873.616 V 51.025575 C 873.616,24.973578 857.98,3.9995786 838.523,3.9995786 H 774.392 z M 134.548,180.81559 c -19.457,0 -35.093,20.974 -35.093,47.026 v 263.344 c 0,26.052 15.636,47.026 35.093,47.026 h 142.077 c 19.457,0 35.093,-20.974 35.093,-47.026 v -263.344 c 0,-26.052 -15.636,-47.026 -35.093,-47.026 H 134.548 z m -0.176,71.48 h 142.429 v 21.514 H 134.372 v -21.514 z m 601.048,0 c -19.457,0 -35.093,20.974 -35.093,47.026 v 263.344 c 0,26.052 15.636,47.026 35.093,47.026 h 142.077 c 19.457,0 35.093,-20.974 35.093,-47.026 v -263.344 c 0,-26.052 -15.636,-47.026 -35.093,-47.026 H 735.42 z m -0.176,71.479 h 142.429 v 21.514 H 735.244 v -21.514 z m -600.872,15.048 h 142.429 v 21.514 H 134.372 v -21.514 z m 600.872,71.479 h 142.429 v 21.514 H 735.244 v -21.514 z m -600.872,15.048 h 142.429 v 21.514 H 134.372 v -21.514 z m 300.612,63.955 c -19.457,0 -35.093,20.974 -35.093,47.026 v 263.344 c 0,26.052 15.636,47.026 35.093,47.026 h 142.077 c 19.457,0 35.093,-20.974 35.093,-47.026 v -263.344 c 0,-26.052 -15.636,-47.026 -35.093,-47.026 H 434.984 z m 300.26,7.524 h 142.429 v 21.514 H 735.244 v -21.514 z m -300.436,63.956 h 142.429 v 21.514 H 434.808 v -21.514 z m -296.38,12.696 v 403.53995 c 0,26.05196 15.636,47.02596 35.093,47.02596 h 64.131 c 19.457,0 35.093,-20.974 35.093,-47.02596 V 573.48059 H 138.428 z m 600.872,71.48 v 332.06095 c 0,26.05196 15.636,47.02596 35.093,47.02596 h 64.131 c 19.457,0 35.093,-20.974 35.093,-47.02596 V 644.96059 H 739.3 z m -304.492,2.351 h 142.429 v 21.514 H 434.808 v -21.514 z m 0,86.527 h 142.429 v 21.514 H 434.808 v -21.514 z m 4.056,148.131 v 95.05095 c 0,26.05196 15.636,47.02596 35.093,47.02596 h 64.131 c 19.457,0 35.093,-20.974 35.093,-47.02596 V 881.96959 H 438.864 z"/>
</g>
</svg>



