<?xml version="1.0" encoding="UTF-8"?>
<svg xmlns="http://www.w3.org/2000/svg" xmlns:xlink="http://www.w3.org/1999/xlink" width="32" height="32">
<!-- opt-svg marker [don't remove]: 1024x1024=>32x32 -->
<g transform="scale(0.03125 0.03125)">
<path d="m 132,3.4845786 c -6.648,0 -12,5.352 -12,11.9999994 V 408.48459 h 281.625 v -166.688 c 0,-24.198 20.489,-44.688 44.688,-44.688 H 702.876 V 15.483578 c 0,-6.6479994 -5.352,-11.9999994 -12,-11.9999994 H 132.001 z M 450.313,233.79659 c -6.648,0 -12,5.352 -12,12 v 166.75 h 129.75 c 24.198,0 44.688,20.489 44.688,44.688 v 359.438 h 396.438 c 6.648,0 12,-5.352 12,-12 v -558.875 c 0,-6.648 -5.352,-12 -12,-12 H 450.314 z M 12,441.17159 c -6.648,0 -12,5.352 -12,12 v 558.87491 c 0,6.648 5.352,12 12,12 h 558.875 c 6.648,0 12,-5.352 12,-12 V 453.17159 c 0,-6.648 -5.352,-12 -12,-12 H 12 z m 236.563,145.188 h 85.688 c 2.538,1.32 4.313,4.017 4.313,7.188 v 89.875 l 86.438,-0.25 c 4.304,-0.014 7.798,3.587 7.813,8.063 l 0.25,81.875 c 0.014,4.475 -3.509,8.111 -7.813,8.125 l -86.688,0.25 v 90.188 c 0,4.475 -3.446,8.063 -7.75,8.063 h -78.813 c -4.304,0 -7.75,-3.587 -7.75,-8.063 v -89.813 l -86.438,0.25 c -4.304,0.014 -7.737,-3.587 -7.75,-8.063 l -0.25,-81.938 c -0.013,-4.475 3.446,-8.049 7.75,-8.063 l 86.688,-0.25 v -90.25 c 0,-3.17 1.774,-5.868 4.313,-7.188 z"/>
</g>
</svg>



