<?xml version="1.0" encoding="UTF-8"?>
<svg xmlns:dc="http://purl.org/dc/elements/1.1/" xmlns:cc="http://creativecommons.org/ns#" xmlns:rdf="http://www.w3.org/1999/02/22-rdf-syntax-ns#" xmlns:svg="http://www.w3.org/2000/svg" xmlns="http://www.w3.org/2000/svg" xmlns:sodipodi="http://sodipodi.sourceforge.net/DTD/sodipodi-0.dtd" xmlns:inkscape="http://www.inkscape.org/namespaces/inkscape" viewBox="0 0 48 48" version="1.1" id="svg4" sodipodi:docname="times-circle.svg" inkscape:export-filename="/home/coyote/Documents/times-circle.svg.png" inkscape:export-xdpi="6.1935482" inkscape:export-ydpi="6.1935482" width="48" height="48" inkscape:version="0.92.2 5c3e80d, 2017-08-06">
  <metadata id="metadata10">
    <rdf:RDF>
      <cc:Work rdf:about="">
        <dc:format>image/svg+xml</dc:format>
        <dc:type rdf:resource="http://purl.org/dc/dcmitype/StillImage"/>
        <dc:title/>
      </cc:Work>
    </rdf:RDF>
  </metadata>
  <defs id="defs8"/>
  <sodipodi:namedview pagecolor="#ffffff" bordercolor="#666666" borderopacity="1" objecttolerance="10" gridtolerance="10" guidetolerance="10" inkscape:pageopacity="0" inkscape:pageshadow="2" inkscape:window-width="1660" inkscape:window-height="1023" id="namedview6" showgrid="false" inkscape:zoom="0.4609375" inkscape:cx="-171.38983" inkscape:cy="260.33898" inkscape:window-x="2582" inkscape:window-y="278" inkscape:window-maximized="0" inkscape:current-layer="svg4"/>
  <path d="M 24,8 C 15.16129,8 8,15.16129 8,24 8,32.83871 15.16129,40 24,40 32.83871,40 40,32.83871 40,24 40,15.16129 32.83871,8 24,8 Z m 0,28.90323 c -7.129032,0 -12.903226,-5.7742 -12.903226,-12.90323 0,-7.12903 5.774194,-12.90323 12.903226,-12.90323 7.129032,0 12.903226,5.7742 12.903226,12.90323 0,7.12903 -5.774194,12.90323 -12.903226,12.90323 z M 30.567742,19.9871 26.554839,24 l 4.012903,4.0129 c 0.303226,0.30323 0.303226,0.79355 0,1.09678 l -1.458065,1.45806 c -0.303225,0.30323 -0.793548,0.30323 -1.096774,0 L 24,26.55484 l -4.012903,4.0129 c -0.303226,0.30323 -0.793549,0.30323 -1.096774,0 l -1.458065,-1.45806 c -0.303226,-0.30323 -0.303226,-0.79355 0,-1.09678 L 21.445161,24 17.432258,19.9871 c -0.303226,-0.30323 -0.303226,-0.79355 0,-1.09678 l 1.458065,-1.45806 c 0.303225,-0.30323 0.793548,-0.30323 1.096774,0 L 24,21.44516 l 4.012903,-4.0129 c 0.303226,-0.30323 0.793549,-0.30323 1.096774,0 l 1.458065,1.45806 c 0.303226,0.30323 0.303226,0.79355 0,1.09678 z" id="path2" inkscape:connector-curvature="0" style="stroke-width:0.06451613"/>
  <path style="fill:#a52a2a;stroke-width:0.13996719" d="M 22.265237,39.84249 C 14.725557,38.98376 8.7966121,32.91431 8.1597179,25.40269 7.7603245,20.69219 9.304661,16.36731 12.617564,12.91858 c 4.202223,-4.37451 10.677297,-5.96 16.412892,-4.01885 2.43425,0.82384 4.351899,2.01936 6.194177,3.86164 4.345609,4.34561 5.794206,10.52419 3.837058,16.36589 -1.780849,5.31548 -6.520628,9.45774 -12.008992,10.49509 -1.441244,0.27241 -3.498086,0.36699 -4.787462,0.22014 z m 4.011517,-3.08462 C 32.650751,35.6289 37.301272,29.79437 36.92537,23.39814 36.581087,17.53992 32.751346,12.86668 27.107272,11.4176 c -1.838091,-0.47191 -4.50658,-0.45235 -6.377407,0.0468 -4.479941,1.19519 -7.945066,4.60445 -9.237686,9.08875 -0.37888,1.31439 -0.516409,4.04024 -0.278311,5.51619 0.759591,4.70868 4.104594,8.67067 8.615109,10.20417 1.791203,0.60898 4.567018,0.81752 6.447777,0.48439 z" id="path4506" inkscape:connector-curvature="0"/>
  <path style="fill:#a52a2a;stroke-width:0.13996719" d="m 18.287397,29.90875 c -0.495822,-0.47611 -0.939733,-1.01801 -0.98647,-1.20423 -0.0736,-0.29324 0.19859,-0.62257 2.033348,-2.4602 1.165077,-1.1669 2.118322,-2.18467 2.118322,-2.26171 0,-0.077 -0.944778,-1.08328 -2.099508,-2.23608 -1.154729,-1.15281 -2.099508,-2.19296 -2.099508,-2.31146 0,-0.36861 1.850256,-2.09751 2.244738,-2.09751 0.262267,0 0.865247,0.51796 2.444217,2.09956 l 2.096062,2.09957 2.102846,-2.09957 c 1.595593,-1.5931 2.187832,-2.09956 2.455165,-2.09956 0.486007,0 2.093823,1.61642 2.093823,2.10503 0,0.26192 -0.518368,0.8654 -2.097565,2.44197 l -2.097564,2.09406 2.097564,2.11338 c 1.586424,1.59839 2.097565,2.1991 2.097565,2.46515 0,0.25165 -0.274973,0.61723 -0.966161,1.28451 -0.531389,0.51301 -1.046436,0.93275 -1.14455,0.93275 -0.09811,0 -1.130289,-0.94478 -2.293724,-2.09951 -1.163434,-1.15473 -2.173238,-2.0995 -2.244007,-2.0995 -0.07077,0 -1.080572,0.94477 -2.244007,2.0995 -1.163435,1.15473 -2.226431,2.09951 -2.362213,2.09951 -0.135783,0 -0.65255,-0.38954 -1.148373,-0.86566 z" id="path4508" inkscape:connector-curvature="0"/>
  <path style="fill:#a52a2a;stroke-width:0.13996719" d="M 21.368617,39.64897 C 17.131735,38.89907 13.182872,36.35136 10.873727,32.87791 4.6437367,23.50666 9.6961447,10.97811 20.700915,8.50925 22.29967,8.15058 25.272299,8.08086 26.75117,8.36735 c 3.129886,0.60632 5.840858,1.987 8.082535,4.11638 3.259253,3.09597 4.97566,7.0577 4.983324,11.50227 0.0076,4.41144 -1.637574,8.26943 -4.846448,11.36503 -1.432109,1.38155 -2.553075,2.17029 -4.241191,2.98421 -2.776964,1.3389 -6.369744,1.84313 -9.360773,1.31373 z m 6.368507,-3.2037 c 3.816896,-1.23515 6.79455,-3.92657 8.27284,-7.47758 1.249171,-3.00065 1.261338,-6.71283 0.03207,-9.78551 -1.50859,-3.77089 -4.69276,-6.62293 -8.654828,-7.75208 -0.970456,-0.27657 -1.427632,-0.31785 -3.429196,-0.30962 -2.090928,0.009 -2.425963,0.045 -3.540693,0.3852 -3.597565,1.0978 -6.440485,3.47938 -8.047603,6.74167 -1.003161,2.03632 -1.286524,3.3464 -1.286648,5.9486 -2.39e-4,4.87974 2.751817,9.25948 7.197997,11.45523 2.058569,1.01662 3.439278,1.28408 6.306799,1.22171 1.68332,-0.0366 2.127247,-0.0969 3.149262,-0.42762 z" id="path4510" inkscape:connector-curvature="0"/>
</svg>
  
  
  
  
  
  
  

