<?xml version="1.0" encoding="UTF-8"?>
<!DOCTYPE svg PUBLIC "-//W3C//DTD SVG 1.1//EN" "http://www.w3.org/Graphics/SVG/1.1/DTD/svg11.dtd">
<svg version="1.1" xmlns="http://www.w3.org/2000/svg" xmlns:xlink="http://www.w3.org/1999/xlink" x="0" y="0" width="270" height="90" viewBox="0, 0, 270, 90">
  <g id="Layer_1">
    <g>
      <path d="M224.908,59.781 C221.623,59.781 218.95,57.109 218.95,53.824 L218.95,36.165 C218.95,32.88 221.623,30.206 224.908,30.206 L238.463,30.206 C239.525,30.206 240.389,31.07 240.389,32.131 C240.389,33.192 239.525,34.055 238.463,34.055 L224.908,34.055 C223.746,34.055 222.801,35.002 222.801,36.165 L222.801,43.115 L236.095,43.115 C237.101,43.115 237.919,43.934 237.919,44.94 C237.919,45.946 237.101,46.764 236.095,46.764 L222.801,46.764 L222.801,53.824 C222.801,54.987 223.746,55.931 224.908,55.931 L238.463,55.931 C239.525,55.931 240.389,56.796 240.389,57.857 C240.389,58.919 239.525,59.781 238.463,59.781 z M164.126,60.17 C160.217,60.17 157.206,59.178 155.176,57.22 C153.148,55.266 152.12,52.326 152.12,48.481 L152.12,32.053 C152.12,30.822 153.12,29.821 154.35,29.821 C155.581,29.821 156.582,30.822 156.582,32.053 L156.582,47.892 C156.582,50.769 157.202,52.926 158.425,54.3 C159.654,55.684 161.571,56.385 164.126,56.385 C166.679,56.385 168.598,55.684 169.827,54.3 C171.049,52.925 171.668,50.769 171.668,47.892 L171.668,32.053 C171.668,30.822 172.67,29.821 173.901,29.821 C175.132,29.821 176.133,30.822 176.133,32.053 L176.133,48.481 C176.133,52.324 175.103,55.264 173.074,57.22 C171.044,59.178 168.035,60.17 164.126,60.17 M197.652,60.17 C192.619,60.17 188.784,58.74 186.258,55.92 C185.527,55.104 185.573,53.845 186.364,53.055 L186.372,53.046 L186.38,53.038 C186.781,52.64 187.313,52.422 187.879,52.422 C188.478,52.422 189.042,52.677 189.429,53.125 C190.133,53.938 190.938,54.6 191.825,55.091 C193.372,55.95 195.318,56.385 197.608,56.385 C199.781,56.385 201.515,56.002 202.762,55.245 C204.046,54.469 204.698,53.35 204.698,51.918 C204.698,50.76 204.108,49.815 202.944,49.113 C201.812,48.432 199.902,47.847 197.104,47.322 C194.386,46.815 192.195,46.181 190.591,45.437 C189.005,44.703 187.84,43.786 187.127,42.706 C186.414,41.634 186.053,40.303 186.053,38.75 C186.053,37.111 186.513,35.597 187.42,34.252 C188.329,32.904 189.662,31.817 191.383,31.023 C193.113,30.225 195.161,29.821 197.471,29.821 C200.171,29.821 202.505,30.315 204.412,31.291 C205.692,31.945 206.851,32.847 207.86,33.971 C208.63,34.832 208.558,36.165 207.697,36.942 C207.309,37.291 206.808,37.483 206.288,37.483 C205.629,37.483 205.019,37.183 204.617,36.662 C204.045,35.918 203.401,35.312 202.7,34.862 C201.404,34.029 199.661,33.607 197.517,33.607 C195.401,33.607 193.73,34.039 192.551,34.891 C191.352,35.758 190.743,36.89 190.743,38.253 C190.743,39.532 191.339,40.559 192.516,41.305 C193.659,42.032 195.638,42.642 198.565,43.168 C201.221,43.645 203.357,44.257 204.915,44.984 C206.455,45.701 207.592,46.605 208.292,47.67 C208.989,48.731 209.342,50.069 209.342,51.647 C209.342,53.343 208.854,54.854 207.892,56.138 C206.922,57.429 205.544,58.433 203.799,59.122 C202.037,59.817 199.97,60.17 197.652,60.17 M130.822,60.178 C125.787,60.178 121.954,58.747 119.427,55.927 C118.696,55.112 118.743,53.853 119.533,53.062 L119.545,53.05 C119.947,52.65 120.481,52.43 121.049,52.43 C121.649,52.43 122.214,52.686 122.598,53.133 C123.3,53.945 124.105,54.607 124.993,55.099 C126.541,55.959 128.487,56.394 130.777,56.394 C132.949,56.394 134.683,56.011 135.932,55.254 C137.216,54.478 137.867,53.359 137.867,51.928 C137.867,50.768 137.276,49.825 136.113,49.123 C134.98,48.44 133.069,47.854 130.272,47.329 C127.555,46.823 125.364,46.188 123.759,45.446 C122.174,44.711 121.007,43.792 120.295,42.715 C119.583,41.642 119.222,40.311 119.222,38.759 C119.222,37.119 119.682,35.607 120.588,34.262 C121.497,32.912 122.831,31.826 124.552,31.032 C126.28,30.235 128.328,29.83 130.64,29.83 C133.34,29.83 135.676,30.325 137.58,31.3 C138.862,31.955 140.021,32.857 141.027,33.98 C141.799,34.841 141.725,36.172 140.866,36.95 C140.478,37.299 139.977,37.491 139.456,37.491 C138.797,37.491 138.188,37.192 137.786,36.671 C137.217,35.928 136.57,35.321 135.869,34.87 C134.572,34.036 132.829,33.614 130.686,33.614 C128.569,33.614 126.899,34.047 125.718,34.899 C124.52,35.769 123.912,36.9 123.912,38.261 C123.912,39.54 124.508,40.567 125.684,41.314 C126.828,42.041 128.806,42.65 131.735,43.177 C134.388,43.652 136.525,44.263 138.086,44.992 C139.626,45.712 140.76,46.616 141.46,47.677 C142.158,48.737 142.512,50.075 142.512,51.656 C142.512,53.353 142.024,54.863 141.06,56.145 C140.09,57.437 138.713,58.442 136.966,59.131 C135.205,59.826 133.138,60.178 130.822,60.178" fill="#FFFFFF"/>
      <path d="M101.177,40.296 C100.716,39.821 99.959,39.821 99.5,40.296 C98.984,40.811 99.045,41.701 99.686,42.126 C100.076,42.385 100.599,42.385 100.991,42.126 C101.629,41.701 101.692,40.811 101.177,40.296 M99.623,36.108 C96.34,35.34 93.391,38.289 94.16,41.571 C94.552,43.243 95.88,44.57 97.552,44.963 C100.836,45.735 103.788,42.781 103.015,39.498 C102.621,37.826 101.294,36.498 99.623,36.108 M44.808,66.576 C40.913,66.577 37.028,65 34.667,62.465 C31.754,59.335 29.996,56.191 30.231,50.194 C30.379,46.415 32.477,42.265 35.844,39.095 C40.699,34.517 47.2,31.204 54.147,29.763 C56.826,29.21 59.6,28.929 62.392,28.929 C63.777,28.929 65.181,28.999 66.564,29.137 C70.426,29.521 74.057,30.234 77.359,31.257 C79.15,31.813 80.869,32.468 82.469,33.204 C82.694,33.307 82.93,33.411 83.172,33.519 C84.499,34.107 86,34.773 86.941,35.731 L87.304,36.101 L87.303,35.582 C87.303,34.461 87.281,33.303 87.259,32.181 C87.241,31.214 87.223,30.301 87.223,29.547 C87.223,29.154 87.552,28.91 87.859,28.91 C87.949,28.91 88.037,28.929 88.12,28.969 C88.886,29.325 89.988,29.842 91.255,30.435 C93.977,31.712 97.365,33.3 99.925,34.47 C102.131,35.478 103.606,37.185 104.43,39.687 C105.149,41.865 105.292,44.324 105.385,46.862 C105.388,46.946 105.391,47.026 105.367,47.073 C105.355,47.099 105.273,47.21 104.693,47.21 C104.602,47.21 104.514,47.208 104.436,47.206 C104.371,47.203 104.311,47.201 104.262,47.201 L104.231,47.202 C104.077,47.203 103.9,47.205 103.714,47.206 C103.173,47.209 102.559,47.212 102.108,47.23 C101.648,47.251 101.188,47.262 100.702,47.262 C100.04,47.262 99.333,47.242 98.541,47.202 C96.546,47.104 94.414,46.259 92.838,44.941 C92.7,44.824 92.444,44.743 92.218,44.743 C92.012,44.743 91.84,44.808 91.722,44.932 C91.409,45.254 91.498,45.754 91.696,45.956 C92.532,46.799 93.43,47.347 94.52,47.91 C95.813,48.575 97.184,48.774 98.842,48.871 C99.46,48.907 100.08,48.926 100.686,48.926 C101.671,48.926 102.65,48.877 103.594,48.779 L103.827,48.755 C104.035,48.733 104.213,48.715 104.353,48.705 C104.229,48.81 104.045,48.954 103.801,49.135 C102.8,49.878 101.547,50.507 100.076,51.001 C98.261,51.619 96.28,51.961 94.187,52.02 C93.982,52.025 93.774,52.027 93.568,52.027 C92.574,52.027 91.562,51.962 90.561,51.833 C90.302,51.8 90.04,51.761 89.785,51.723 C89.424,51.67 89.049,51.614 88.675,51.575 C88.589,51.567 88.502,51.556 88.415,51.546 C88.157,51.517 87.89,51.487 87.622,51.487 C87.416,51.487 87.231,51.505 87.059,51.542 C86.528,51.658 86.066,51.944 85.755,52.347 C85.297,52.946 85.173,54.465 85.418,55.122 C85.903,56.431 86.988,57.162 87.967,57.746 C88.284,57.935 88.627,58.087 88.957,58.237 C89.773,58.602 90.483,58.92 90.714,59.651 C90.41,59.73 89.498,59.787 88.488,59.787 L88.366,59.787 L85.193,59.787 C85.188,59.787 85.08,59.789 84.907,59.789 C83.951,59.789 83.209,59.719 82.873,59.598 L82.862,59.593 C82.857,59.591 82.851,59.587 82.843,59.584 C82.555,59.429 82.414,59.005 82.299,58.664 L82.294,58.647 C82.132,58.168 81.858,57.664 81.403,57.012 C80.509,55.737 79.365,54.75 78.343,54.372 C76.866,53.825 75.984,53.725 74.78,53.725 C74.434,53.725 74.063,53.733 73.634,53.744 C73.31,53.75 72.956,53.758 72.563,53.764 C72.259,53.767 72.002,53.769 71.775,53.769 C71.25,53.769 70.9,53.76 70.495,53.75 C70.003,53.739 69.445,53.724 68.437,53.724 C68.113,53.724 67.873,54.072 67.795,54.656 C67.649,55.733 68.086,57.514 69.885,58.009 C70.048,58.055 70.213,58.097 70.378,58.139 C71.253,58.364 72.157,58.595 72.79,59.243 C72.997,59.454 73.056,59.639 73.03,59.698 C73.018,59.729 72.927,59.787 72.677,59.787 L66.458,59.787 C65.416,59.787 64.626,59.744 63.964,59.182 C62.849,58.242 62.304,56.978 61.727,55.642 L61.634,55.425 C60.893,53.713 60.219,52.353 59.516,51.144 C57.689,48.007 55.476,45.725 52.938,44.365 C50.937,43.293 48.446,42.677 46.105,42.677 C43.28,42.677 40.655,43.546 38.515,45.191 C36.364,46.84 35.164,49.245 35.134,51.961 C35.1,54.995 36.563,58.074 38.953,59.997 C40.472,61.218 42.491,61.892 44.641,61.892 C44.845,61.892 45.053,61.886 45.259,61.873 C47.662,61.733 49.775,60.704 51.052,59.046 C52.098,57.689 52.485,56.002 52.141,54.297 C51.851,52.861 51.001,51.606 49.868,50.94 C49.103,50.492 48.149,50.263 47.031,50.262 L47.013,50.262 C45.719,50.262 44.724,50.589 44.056,51.235 C43.122,52.141 42.97,53.744 43.718,54.81 C43.817,54.953 43.933,55.089 44.044,55.22 C44.367,55.603 44.645,55.935 44.579,56.375 C44.524,56.744 44.211,57.052 43.8,57.143 C43.697,57.167 43.592,57.179 43.487,57.179 C42.836,57.179 42.269,56.735 41.908,56.362 C40.569,54.982 40.148,52.779 40.885,51.003 C41.901,48.549 44.629,47.451 46.881,47.451 C46.959,47.451 47.037,47.452 47.114,47.454 C50.389,47.566 53.517,49.702 54.896,52.77 C56.236,55.752 55.873,59.474 53.973,62.25 C52.092,64.998 48.751,66.576 44.808,66.576 M101.878,40.534 C101.878,42.358 100.402,43.835 98.579,43.835 C96.755,43.835 95.279,42.358 95.279,40.534 C95.279,38.711 96.755,37.234 98.579,37.234 C100.402,37.234 101.878,38.711 101.878,40.534" fill="#FFFFFF"/>
    </g>
  </g>
</svg>
