<svg xmlns="http://www.w3.org/2000/svg" width="129.306" height="77.61" viewBox="0 0 129.306 77.61"><g transform="translate(-6.39 -32.061)"><path d="M9.4,94.636v12.028h9.021V94.636h3.007v15.035H6.39V94.636Z" fill="#25bbbf"/><path d="M42.475,109.671v-6.014l-6.014-9.021H40.22L43.979,99.9l3.806-5.262H51.5l-6.015,9.021v6.014Z" fill="#25bbbf"/><path d="M69.539,94.636v12.028h9.022V94.636h3.007v15.035H66.532V94.636Z" fill="#25bbbf"/><path d="M96.6,109.671V94.636h3.007l9.021,10.666V94.636h3.007v15.035h-3.007L99.611,99.334v10.337Z" fill="#25bbbf"/><path d="M135.7,94.636v15.035h-3.007V94.636Z" fill="#25bbbf"/><path d="M79.26,39.551v-7.49H63.111V45.675Z" fill="#2ce0e5"/><path d="M63.111,32.061H60.15L49.256,50.929l13.855-5.254Z" fill="#31f9ff"/><path d="M63.111,59.643h0Z" fill="#fff"/><path d="M85,37.373l-3.067-5.312H79.26v7.49Z" fill="#299b98"/><path d="M63.111,45.675,49.256,50.929l13.855,8.712Z" fill="#2ce0e5"/><path d="M63.111,59.641H79.26V39.551l-16.15,6.124Z" fill="#25bbbf"/><path d="M85,37.373,79.26,39.551V59.643H87.8l5.031-8.714Z" fill="#0e7774"/><path d="M79.26,69.8h2.676L87.8,59.643H79.26Z" fill="#299b98"/><path d="M63.113,59.643,79.26,69.8V59.643Z" fill="#0e7774"/><path d="M63.111,59.643V69.8H79.26L63.113,59.643Z" fill="#299b98"/><path d="M63.111,59.641,49.256,50.929,60.15,69.8h2.961V59.643Z" fill="#25bbbf"/></g></svg>
