<svg focusable="false" xmlns="http://www.w3.org/2000/svg" viewBox="0 0 512 512">
<path fill="#1565c0" d="M256 8C119 8 8 119 8 256s111 248 248 248 248-111 248-248S393 8 256 8z"></path>
<g transform="translate(255.4 256)">
    <g transform="scale(0.6, 0.6)">
        <path fill="white" d="M20 424.229h20V279.771H20c-11.046 0-20-8.954-20-20V212c0-11.046 8.954-20 20-20h112c11.046 0 20 8.954 20 20v212.229h20c11.046 0 20 8.954 20 20V492c0 11.046-8.954 20-20 20H20c-11.046 0-20-8.954-20-20v-47.771c0-11.046 8.954-20 20-20zM96 0C56.235 0 24 32.235 24 72s32.235 72 72 72 72-32.235 72-72S135.764 0 96 0z" transform="translate(-95 -256)"></path>
    </g>
</g>
</svg>
